<mxfile host="app.diagrams.net" modified="2023-12-27T13:32:14.265Z" agent="Mozilla/5.0 (Windows NT 10.0; Win64; x64) AppleWebKit/537.36 (KHTML, like Gecko) Chrome/120.0.0.0 Safari/537.36" version="22.1.11" etag="1DlsUuJW5KZe7AfVaoOn" type="github">
  <diagram name="第 1 页" id="oK2z046SFb1tkvpZuHAV">
    <mxGraphModel>
      <root>
        <mxCell id="0" />
        <mxCell id="1" parent="0" />
      </root>
    </mxGraphModel>
  </diagram>
</mxfile>
